<?xml version="1.0" encoding="utf-8"?>
<!-- Generator: Adobe Illustrator 23.1.0, SVG Export Plug-In . SVG Version: 6.00 Build 0)  -->
<svg version="1.1" id="Шар_1" xmlns="http://www.w3.org/2000/svg" xmlns:xlink="http://www.w3.org/1999/xlink" x="0px" y="0px"
	 viewBox="0 0 380.6 200" style="enable-background:new 0 0 380.6 200;" xml:space="preserve">
<style type="text/css">
	.st0{fill:#22C3B1;}
	.st1{fill:#FFFFFF;}
</style>
<path class="st0" d="M47.6,91.5c0-45.5,0-68.3,11.6-80.1c4.9-4.9,11-8.6,17.9-10.5c16-4.4,35.6,6.9,75.2,29.5l3.4,1.9
	c14.5,8.2,21.7,12.4,29.5,13.3c3.4,0.4,6.9,0.4,10.3,0c7.8-1,15-5.1,29.5-13.3l3.2-1.9c39.4-22.6,59.2-33.9,75.2-29.5
	c6.7,1.9,12.9,5.3,17.9,10.5c11.6,11.8,11.6,34.4,11.6,80.1v32.4c0,30.5,0,45.9-7.2,56.7c-3.2,4.8-7.2,8.8-12,12
	c-11,7.4-26.3,7.4-56.7,7.4H123.3c-30.5,0-45.7,0-56.5-7.4c-4.8-3.2-8.8-7.2-12-12c-7.2-11-7.2-26.3-7.2-56.7L47.6,91.5L47.6,91.5z"
	/>
<g>
	<path class="st1" d="M0,83.9h10.5l13.3,18.5l13.3-18.5h10.5v43.4H35.8V102l-12,16l-12-16v25.3H0V83.9z"/>
	<path class="st1" d="M74,83.9h36.7V94H85.8v6.5h20v9.9h-20v6.5h24.9v10.3H74V83.9L74,83.9z"/>
	<path class="st1" d="M155.9,100.8h23.6c1,11.8-3.4,27.6-23.2,27.6c-13.9,0-24.2-10.3-24.2-22.8s10.3-22.8,24.2-22.8
		c6.1,0,10.8,2.1,13.9,4.2c1.7,1.3,3.4,2.7,4.6,4.2l-7,8c-1-1.1-1.9-1.9-3.2-2.9c-2.1-1.5-4.8-2.9-8.4-2.9c-6.9,0-12,5.3-12,12.2
		c0,6.9,5.3,12.2,12,12.2c9.7,0,11.2-7.6,11.2-7.6h-11.6L155.9,100.8L155.9,100.8z"/>
	<path class="st1" d="M289.1,100.8h23.6c1,11.8-3.4,27.6-23.2,27.6c-13.9,0-24.2-10.3-24.2-22.8s10.3-22.8,24.2-22.8
		c6.1,0,10.8,2.1,13.9,4.2c1.7,1.3,3.4,2.7,4.6,4.2l-7.2,8c-1-1.1-1.9-1.9-3.2-2.9c-2.1-1.5-4.8-2.9-8.4-2.9c-6.9,0-12,5.3-12,12.2
		c0,6.9,5.3,12.2,12,12.2c9.7,0,11.2-7.6,11.2-7.6h-11.6L289.1,100.8L289.1,100.8z"/>
	<path class="st1" d="M222.3,82.8c13.9,0,24.2,10.3,24.2,22.8c0,12.8-10.3,22.8-24.2,22.8s-24.2-10.3-24.2-22.8
		C198.3,92.9,208.6,82.8,222.3,82.8z M222.3,117.6c6.7,0,12-5.3,12-12s-5.3-12.2-12-12.2c-6.9,0-12,5.3-12,12.2
		C210.3,112.3,215.6,117.6,222.3,117.6z"/>
	<path class="st1" d="M356.5,82.8c13.9,0,24.2,10.3,24.2,22.8c0,12.8-10.3,22.8-24.2,22.8s-24.2-10.3-24.2-22.8
		C332.3,92.9,342.6,82.8,356.5,82.8z M356.5,117.6c6.7,0,12-5.3,12-12s-5.3-12.2-12-12.2s-12,5.3-12,12.2
		C344.5,112.3,349.8,117.6,356.5,117.6z"/>
</g>
</svg>
