<?xml version="1.0" encoding="utf-8"?>
<!-- Generator: Adobe Illustrator 23.1.0, SVG Export Plug-In . SVG Version: 6.00 Build 0)  -->
<svg version="1.1" id="Layer_1" xmlns="http://www.w3.org/2000/svg" xmlns:xlink="http://www.w3.org/1999/xlink" x="0px" y="0px"
	 viewBox="0 0 878 1280" style="enable-background:new 0 0 878 1280;" xml:space="preserve">
<style type="text/css">
	.st0{fill:#FFFFFF;}
</style>
<g transform="translate(0.000000,1280.000000) scale(0.100000,-0.100000)">
	<path class="st0" d="M6355,12794c-487-36-979-139-1485-311c-220-75-760-306-760-326c0-3,60,15,133,38c1047,343,1440,431,2061,466
		c856,48,1456-187,1802-707c239-359,356-849,356-1499c1-699-138-1263-473-1925c-123-244-194-362-429-720c-222-338-306-477-401-664
		c-169-330-267-644-314-996c-25-190-35-356-45-745c-12-494-19-638-36-840c-106-1264-326-2246-678-3025c-71-157-224-445-306-575
		c-204-326-432-540-658-619l-42-15v187c0,103,5,239,10,302c26,291,38,383,154,1175c87,590,100,746,100,1175c0,360-7,481-45,760
		c-80,590-247,1042-521,1412c-61,83-307,342-316,333c-3-2,37-55,89-117c163-197,265-362,357-578c136-319,208-613,264-1085
		c18-150,18-923,0-1095c-66-633-125-981-262-1545c-66-270-89-380-110-526c-56-386,6-620,183-700c77-35,207-33,295,4
		c118,49,228,132,393,296c301,300,567,677,785,1113c321,642,541,1401,709,2453c74,462,107,779,145,1365c57,892,74,1040,146,1290
		c81,285,213,564,509,1079c213,371,307,549,395,741c223,487,343,907,402,1405c17,149,17,782,0,930c-36,299-72,496-129,695
		c-245,853-703,1249-1593,1376C6940,12790,6470,12803,6355,12794z"/>
	<path class="st0" d="M5825,12058c-373-198-895-291-1463-259c-331,18-534,40-1042,117c-162,24-371,55-465,68c-149,22-215,30-390,52
		c-111,13-444,34-550,34c-390,0-754-74-1020-207c-274-137-504-390-671-738c-107-222-167-425-205-690c-18-121-18-618-1-745
		c61-449,161-772,366-1195c161-331,354-652,710-1185c401-599,538-855,613-1144c22-82,26-123,26-221c0-146-12-192-135-510
		c-47-121-97-260-111-310c-76-265-139-528-173-720c-87-502-46-1181,125-2050c11-55,38-201,60-325c79-434,142-661,237-856
		c174-358,453-405,602-101c81,163,113,291,223,897c12,63,41,203,66,310c254,1110,554,1948,928,2601c395,687,912,1227,1542,1612
		c70,42,124,77,120,77c-13,0-143-68-278-145c-792-456-1424-1180-1910-2191c-328-682-600-1489-879-2608c-44-175-81-321-83-323
		c-7-7-97,373-142,601c-116,587-161,1074-152,1664c7,501,43,797,142,1192c46,182,82,283,177,489c174,380,193,445,192,671
		c-1,265-52,457-199,755c-123,249-262,459-554,838c-367,476-490,663-677,1022c-472,911-627,1752-429,2341c115,342,365,627,690,785
		c162,78,306,119,548,156c156,24,736,24,1027-1c113-9,257-21,320-26s212-17,330-27c273-23,1319-26,1515-5c350,37,568,86,757,168
		c84,37,243,127,253,145C5873,12083,5872,12083,5825,12058z"/>
</g>
</svg>
